# Blender v2.72 (sub 0) OBJ File: 'terrain.blend'
# www.blender.org
mtllib terrain.mtl
o Terrain_export_Plane.001
v -7.944237 0.000000 7.944237
v 7.944237 0.000000 7.944237
v -7.944237 0.000000 -7.944237
v 7.944237 0.000000 -7.944237
v -12.168080 -0.940266 12.168080
v 12.168080 -0.940266 12.168080
v -12.168080 -0.940266 -12.168080
v 12.168080 -0.940266 -12.168080
v -14.555799 -0.940266 0.000000
v 0.000000 -0.940266 14.555799
v 14.555799 -0.940266 0.000000
v 0.000000 -0.940266 -14.555799
v -13.144247 -3.153901 13.144247
v 13.144247 -3.153901 13.144247
v -13.144247 -3.153901 -13.144247
v 13.144247 -3.153901 -13.144247
v -15.723516 -3.153901 0.000000
v 0.000000 -3.153901 15.723516
v 15.723516 -3.153901 0.000000
v 0.000000 -3.153901 -15.723516
v -7.944237 0.000000 0.000000
v 0.000000 0.000000 7.944237
v 7.944237 0.000000 0.000000
v 0.000000 0.000000 -7.944237
v -13.361939 -0.940266 6.084040
v 6.084040 -0.940266 13.361939
v 13.361939 -0.940266 -6.084040
v -6.084040 -0.940266 -13.361939
v 10.056158 -0.940266 -10.056158
v -10.056158 -0.940266 -10.056158
v 10.056158 -0.940266 10.056158
v -10.056158 -0.940266 10.056158
v -13.361939 -0.940266 -6.084040
v -6.084040 -0.940266 13.361939
v 13.361939 -0.940266 6.084040
v 6.084040 -0.940266 -13.361939
v -14.433882 -3.153901 6.572124
v 6.572124 -3.153901 14.433882
v 14.433882 -3.153901 -6.572124
v -6.572124 -3.153901 -14.433882
v 10.862900 -3.153901 -10.862900
v -10.862900 -3.153901 -10.862900
v 10.862900 -3.153901 10.862900
v -10.862900 -3.153901 10.862900
v -14.433882 -3.153901 -6.572124
v -6.572124 -3.153901 14.433882
v 14.433882 -3.153901 6.572124
v 6.572124 -3.153901 -14.433882
v 0.000000 -2.047083 -15.139658
v 12.656164 -2.047083 -12.656164
v 15.139658 -2.047083 0.000000
v 12.656164 -2.047083 12.656164
v 0.000000 -2.047083 15.139658
v -12.656164 -2.047083 12.656164
v -15.139658 -2.047083 0.000000
v -12.656164 -2.047083 -12.656164
v 0.000000 0.000000 0.000000
v 6.328082 -2.047083 -13.897911
v 13.897911 -2.047083 6.328082
v -6.328082 -2.047083 13.897911
v -13.897911 -2.047083 -6.328082
v -6.328082 -2.047083 -13.897911
v 13.897911 -2.047083 -6.328082
v 6.328082 -2.047083 13.897911
v -13.897911 -2.047083 6.328082
vt 0.549572 0.247377
vt 0.802194 0.296949
vt 0.752623 0.549572
vt 0.962867 0.389908
vt 0.296949 0.197806
vt 0.389908 0.037133
vt 0.197806 0.703051
vt 0.037133 0.610092
vt 0.247377 0.450428
vt 0.703051 0.802194
vt 0.610092 0.962867
vt 0.450428 0.752623
vt 0.981434 0.385492
vt 0.981434 0.176514
vt 1.000000 0.164039
vt 0.385492 0.018566
vt 0.176514 0.018566
vt 0.164039 0.000000
vt 0.018566 0.614508
vt 0.018566 0.823486
vt 0.000000 0.835961
vt 0.614508 0.981434
vt 0.823486 0.981434
vt 0.835961 1.000000
vt 0.981434 0.594471
vt 1.000000 0.598114
vt 0.917980 0.799057
vt 0.594471 0.018566
vt 0.598114 0.000000
vt 0.799057 0.082019
vt 0.018566 0.405529
vt 0.000000 0.401886
vt 0.082019 0.200943
vt 0.405529 0.981434
vt 0.401886 1.000000
vt 0.200943 0.917980
vt 0.500000 0.500000
vt 1.000000 0.381076
vt 0.962867 0.590827
vt 0.962867 0.188989
vt 0.381076 0.000000
vt 0.590827 0.037133
vt 0.188989 0.037133
vt 0.000000 0.618924
vt 0.037133 0.409173
vt 0.037133 0.811011
vt 0.618924 1.000000
vt 0.409173 0.962867
vt 0.811011 0.962867
vt 0.902460 0.787952
vt 0.886939 0.776847
vt 0.787952 0.097540
vt 0.776847 0.113061
vt 0.097540 0.212048
vt 0.113061 0.223153
vt 0.212048 0.902460
vt 0.223153 0.886939
vt 0.757031 0.882531
vt 0.882531 0.242969
vt 0.242969 0.117469
vt 0.117469 0.757031
vn 0.077700 0.996900 0.000000
vn 0.109400 0.987900 -0.109400
vn 0.000000 0.996900 -0.077700
vn 0.120000 0.812000 -0.571100
vn 0.109400 0.987900 0.109400
vn 0.571100 0.812000 0.120000
vn -0.109400 0.987900 0.109400
vn -0.120000 0.812000 0.571100
vn 0.000000 0.996900 0.077700
vn -0.109400 0.987900 -0.109400
vn -0.571100 0.812000 -0.120000
vn -0.077700 0.996900 0.000000
vn 0.171000 0.459700 -0.871400
vn 0.600000 0.529200 -0.600000
vn 0.871400 0.459700 0.171000
vn 0.600000 0.529200 0.600000
vn -0.171000 0.459700 0.871400
vn -0.600000 0.529200 0.600000
vn -0.871400 0.459700 -0.171000
vn -0.600000 0.529200 -0.600000
vn 0.000000 0.466600 -0.884500
vn -0.171000 0.459700 -0.871500
vn 0.884500 0.466600 0.000000
vn 0.871500 0.459700 -0.171000
vn 0.000000 0.466600 0.884500
vn 0.171000 0.459700 0.871500
vn -0.884500 0.466600 0.000000
vn -0.871500 0.459700 0.171000
vn 0.000000 1.000000 0.000000
vn 0.171000 0.459700 -0.871500
vn 0.000000 0.791800 -0.610700
vn 0.424100 0.800100 -0.424100
vn 0.871500 0.459700 0.171000
vn 0.610700 0.791800 0.000000
vn 0.424100 0.800100 0.424100
vn -0.171000 0.459700 0.871500
vn 0.000000 0.791800 0.610700
vn -0.424100 0.800100 0.424100
vn -0.871500 0.459700 -0.171000
vn -0.610700 0.791800 0.000000
vn -0.424100 0.800100 -0.424100
vn -0.171000 0.459700 -0.871400
vn -0.120000 0.812000 -0.571100
vn 0.871400 0.459700 -0.171000
vn 0.571100 0.812000 -0.120000
vn 0.171000 0.459700 0.871400
vn 0.120000 0.812000 0.571100
vn -0.871400 0.459700 0.171000
vn -0.571100 0.812000 0.120000
vn -0.101300 0.989700 -0.101300
vn 0.101300 0.989700 -0.101300
vn 0.101300 0.989700 0.101300
vn -0.101300 0.989700 0.101300
usemtl terrain
s 1
f 23/1/1 4/2/2 24/3/3
f 4/2/2 36/4/4 24/3/3
f 2/5/5 35/6/6 23/1/1
f 1/7/7 34/8/8 22/9/9
f 3/10/10 33/11/11 21/12/12
f 58/13/13 50/14/14 16/15/14
f 59/16/15 52/17/16 14/18/16
f 60/19/17 54/20/18 13/21/18
f 61/22/19 56/23/20 15/24/20
f 49/25/21 20/26/21 40/27/22
f 51/28/23 19/29/23 39/30/24
f 53/31/25 18/32/25 38/33/26
f 55/34/27 17/35/27 37/36/28
f 57/37/29 24/3/3 3/10/10
f 22/9/9 57/37/29 21/12/12
f 2/5/5 23/1/1 57/37/29
f 49/25/21 58/13/13 48/38/30
f 12/39/31 36/4/4 58/13/13
f 36/4/4 8/40/32 50/14/14
f 51/28/23 59/16/15 47/41/33
f 11/42/34 35/6/6 59/16/15
f 35/6/6 6/43/35 52/17/16
f 53/31/25 60/19/17 46/44/36
f 10/45/37 34/8/8 60/19/17
f 34/8/8 5/46/38 54/20/18
f 55/34/27 61/22/19 45/47/39
f 9/48/40 33/11/11 61/22/19
f 33/11/11 7/49/41 56/23/20
f 62/50/42 40/27/22 15/24/20
f 28/51/43 62/50/42 56/23/20
f 12/39/31 49/25/21 62/50/42
f 63/52/44 39/30/24 16/15/14
f 27/53/45 63/52/44 50/14/14
f 11/42/34 51/28/23 63/52/44
f 64/54/46 38/33/26 14/18/16
f 26/55/47 64/54/46 52/17/16
f 10/45/37 53/31/25 64/54/46
f 65/56/48 37/36/28 13/21/18
f 25/57/49 65/56/48 54/20/18
f 9/48/40 55/34/27 65/56/48
f 57/37/29 23/1/1 24/3/3
f 48/38/30 58/13/13 16/15/14
f 28/51/43 7/49/41 30/58/50
f 27/53/45 8/40/32 29/59/51
f 29/59/51 8/40/32 36/4/4
f 36/4/4 12/39/31 24/3/3
f 30/58/50 3/10/10 28/51/43
f 28/51/43 3/10/10 24/3/3
f 4/2/2 29/59/51 36/4/4
f 12/39/31 28/51/43 24/3/3
f 26/55/47 6/43/35 31/60/52
f 31/60/52 6/43/35 35/6/6
f 35/6/6 11/42/34 23/1/1
f 29/59/51 4/2/2 27/53/45
f 27/53/45 4/2/2 23/1/1
f 2/5/5 31/60/52 35/6/6
f 11/42/34 27/53/45 23/1/1
f 25/57/49 5/46/38 32/61/53
f 32/61/53 5/46/38 34/8/8
f 34/8/8 10/45/37 22/9/9
f 31/60/52 2/5/5 26/55/47
f 26/55/47 2/5/5 22/9/9
f 1/7/7 32/61/53 34/8/8
f 10/45/37 26/55/47 22/9/9
f 47/41/33 59/16/15 14/18/16
f 30/58/50 7/49/41 33/11/11
f 33/11/11 9/48/40 21/12/12
f 32/61/53 1/7/7 25/57/49
f 25/57/49 1/7/7 21/12/12
f 3/10/10 30/58/50 33/11/11
f 9/48/40 25/57/49 21/12/12
f 46/44/36 60/19/17 13/21/18
f 45/47/39 61/22/19 15/24/20
f 62/50/42 49/25/21 40/27/22
f 63/52/44 51/28/23 39/30/24
f 64/54/46 53/31/25 38/33/26
f 65/56/48 55/34/27 37/36/28
f 21/12/12 57/37/29 3/10/10
f 1/7/7 22/9/9 21/12/12
f 22/9/9 2/5/5 57/37/29
f 20/26/21 49/25/21 48/38/30
f 49/25/21 12/39/31 58/13/13
f 58/13/13 36/4/4 50/14/14
f 19/29/23 51/28/23 47/41/33
f 51/28/23 11/42/34 59/16/15
f 59/16/15 35/6/6 52/17/16
f 18/32/25 53/31/25 46/44/36
f 53/31/25 10/45/37 60/19/17
f 60/19/17 34/8/8 54/20/18
f 17/35/27 55/34/27 45/47/39
f 55/34/27 9/48/40 61/22/19
f 61/22/19 33/11/11 56/23/20
f 56/23/20 62/50/42 15/24/20
f 7/49/41 28/51/43 56/23/20
f 28/51/43 12/39/31 62/50/42
f 50/14/14 63/52/44 16/15/14
f 8/40/32 27/53/45 50/14/14
f 27/53/45 11/42/34 63/52/44
f 52/17/16 64/54/46 14/18/16
f 6/43/35 26/55/47 52/17/16
f 26/55/47 10/45/37 64/54/46
f 54/20/18 65/56/48 13/21/18
f 5/46/38 25/57/49 54/20/18
f 25/57/49 9/48/40 65/56/48
l 42 15
l 16 41
l 14 43
l 13 44
