# Blender v2.72 (sub 0) OBJ File: 'rotor.blend'
# www.blender.org
mtllib rotor.mtl
o Cube
v 0.229249 -0.229249 -0.229249
v 0.229249 -0.229249 0.229249
v -0.229249 -0.229249 0.229249
v -0.229249 -0.229249 -0.229249
v 0.229249 0.229249 -0.229248
v 0.229248 0.229249 0.229249
v -0.229249 0.229249 0.229249
v -0.229249 0.229249 -0.229249
v 2.005615 -0.037457 -0.229248
v 2.005615 -0.037457 0.229249
v 2.005615 0.037457 -0.229248
v 2.005615 0.037457 0.229249
v 0.229248 -0.037457 2.045295
v -0.229249 -0.037457 2.045295
v 0.229248 0.037457 2.045295
v -0.229249 0.037457 2.045295
v 0.229249 -0.037457 -1.988544
v -0.229248 -0.037457 -1.988544
v 0.229249 0.037457 -1.988544
v -0.229248 0.037457 -1.988544
v -2.004352 -0.037457 0.229248
v -2.004352 -0.037457 -0.229249
v -2.004352 0.037457 0.229248
v -2.004352 0.037457 -0.229249
vt 0.692425 0.332051
vt 0.729172 0.286640
vt 0.768086 0.329523
vt 0.231914 0.329523
vt 0.270828 0.286640
vt 0.307575 0.332051
vt 0.494360 0.562818
vt 0.455446 0.605701
vt 0.463253 0.074704
vt 0.500000 0.120115
vt 0.000000 0.042883
vt 0.038914 0.000000
vt 0.268661 0.374934
vt 0.059356 0.605701
vt 0.022609 0.560290
vt 0.436929 0.668160
vt 0.428184 0.668160
vt 0.428184 0.605701
vt 0.267615 0.923053
vt 0.214092 0.923053
vt 0.236481 0.605701
vt 0.290004 0.605701
vt 0.298749 0.605701
vt 0.731339 0.374933
vt 0.544554 0.605701
vt 0.505640 0.562818
vt 0.454419 0.668160
vt 0.445674 0.668160
vt 0.445674 0.605701
vt 0.374661 0.605701
vt 0.405795 0.914437
vt 0.374661 0.914437
vt 0.321138 0.914436
vt 0.343527 0.605701
vt 0.536748 0.074704
vt 0.463164 0.605701
vt 0.463164 0.668160
vt 0.214092 0.605701
vt 0.191703 0.941760
vt 0.182958 0.941760
vt 0.160569 0.941760
vt 0.107046 0.941760
vt 0.129435 0.605701
vt 0.977392 0.560290
vt 0.436929 0.605701
vt 0.107046 1.000000
vt 0.053523 1.000000
vt 0.075912 0.605701
vt 0.000000 1.000000
vt 0.022389 0.605701
vt 0.031134 0.605701
vt 0.961086 0.000000
vt 1.000000 0.042883
vt 0.245226 0.605701
vt 0.321138 0.923053
vt 0.454419 0.605701
vt 0.397050 0.914437
vt 0.352272 0.605701
vt 0.160569 0.605701
vt 0.138180 0.605701
vt 0.940644 0.605701
vt 0.084657 0.605701
vn 0.000000 -1.000000 0.000000
vn 0.000000 1.000000 0.000000
vn 0.107300 0.994200 0.000000
vn -0.000000 0.994500 0.105000
vn -0.107400 0.994200 0.000000
vn 0.000000 0.994100 -0.108400
vn 1.000000 0.000000 0.000000
vn -0.000000 -0.000000 1.000000
vn 0.000000 0.000000 -1.000000
vn 0.107300 -0.994200 0.000000
vn -1.000000 0.000000 -0.000000
vn 0.000000 -0.994500 0.105000
vn 0.000000 -0.994100 -0.108400
vn -0.107400 -0.994200 0.000000
usemtl rotor
s off
f 2/1/1 3/2/1 4/3/1
f 8/4/2 7/5/2 6/6/2
f 6/6/3 12/7/3 11/8/3
f 7/5/4 16/9/4 15/10/4
f 8/4/5 24/11/5 23/12/5
f 5/13/6 19/14/6 20/15/6
f 9/16/7 11/17/7 12/18/7
f 6/19/8 2/20/8 10/21/8
f 5/19/9 11/22/9 9/23/9
f 1/24/10 9/25/10 10/26/10
f 13/27/8 15/28/8 16/29/8
f 7/30/11 3/18/11 14/31/11
f 2/32/7 6/33/7 15/34/7
f 2/1/12 13/10/12 14/35/12
f 17/36/9 18/37/9 20/27/9
f 8/38/11 20/39/11 18/40/11
f 5/41/7 1/42/7 17/43/7
f 1/24/13 4/3/13 18/44/13
f 23/16/11 24/45/11 22/29/11
f 8/46/9 4/47/9 22/48/9
f 7/49/8 23/50/8 21/51/8
f 3/2/14 21/52/14 22/53/14
f 1/24/1 2/1/1 4/3/1
f 5/13/2 8/4/2 6/6/2
f 5/13/3 6/6/3 11/8/3
f 6/6/4 7/5/4 15/10/4
f 7/5/5 8/4/5 23/12/5
f 8/4/6 5/13/6 20/15/6
f 10/45/7 9/16/7 12/18/7
f 12/54/8 6/19/8 10/21/8
f 1/55/9 5/19/9 9/23/9
f 2/1/10 1/24/10 10/26/10
f 14/56/8 13/27/8 16/29/8
f 16/57/11 7/30/11 14/31/11
f 13/58/7 2/32/7 15/34/7
f 3/2/12 2/1/12 14/35/12
f 19/56/9 17/36/9 20/27/9
f 4/59/11 8/38/11 18/40/11
f 19/60/7 5/41/7 17/43/7
f 17/61/13 1/24/13 18/44/13
f 21/28/11 23/16/11 22/29/11
f 24/62/9 8/46/9 22/48/9
f 3/47/8 7/49/8 21/51/8
f 4/3/14 3/2/14 22/53/14
